<svg id="svg" version="1.1" xmlns="http://www.w3.org/2000/svg" xmlns:xlink="http://www.w3.org/1999/xlink" width="400" height="289.62264150943395" viewBox="0, 0, 400,289.62264150943395"><g id="svgg"><path id="path0" d="M83.476 106.647 C 83.209 106.914,83.128 116.379,83.128 147.487 L 83.128 187.980 90.949 187.980 L 98.769 187.980 98.769 147.888 C 98.769 125.837,98.690 107.589,98.593 107.337 C 98.440 106.938,97.555 106.879,91.659 106.879 C 87.466 106.879,84.832 106.769,84.721 106.589 C 84.479 106.197,83.899 106.224,83.476 106.647 M136.050 107.547 C 135.820 107.897,135.093 108.737,134.434 109.414 C 133.776 110.091,133.237 110.710,133.237 110.790 C 133.237 110.869,132.031 112.150,130.558 113.635 C 129.084 115.121,127.552 116.756,127.154 117.269 C 126.284 118.388,124.572 120.203,124.386 120.203 C 124.052 120.203,122.520 121.788,122.520 122.133 C 122.520 122.346,122.329 122.520,122.096 122.520 C 121.862 122.520,121.516 122.813,121.326 123.172 C 120.942 123.898,120.705 124.175,118.172 126.865 C 117.197 127.900,115.984 129.249,115.477 129.861 C 114.970 130.474,113.316 132.252,111.803 133.812 C 110.290 135.372,108.726 137.068,108.327 137.580 C 107.632 138.473,107.344 138.781,106.527 139.503 C 106.322 139.684,105.373 140.704,104.417 141.770 C 101.782 144.708,100.755 145.692,100.322 145.692 C 99.420 145.692,99.925 147.281,101.304 148.781 C 105.321 153.150,106.630 154.593,107.175 155.250 C 107.855 156.068,110.672 159.197,111.875 160.470 C 112.314 160.934,112.672 161.415,112.672 161.540 C 112.672 161.665,113.096 162.247,113.614 162.834 C 114.131 163.420,114.762 164.137,115.015 164.427 C 115.269 164.716,116.279 165.661,117.260 166.527 C 118.241 167.392,119.044 168.225,119.044 168.377 C 119.044 168.529,119.828 169.457,120.787 170.439 C 121.745 171.420,122.748 172.543,123.015 172.933 C 123.283 173.323,124.128 174.272,124.893 175.042 C 125.659 175.812,126.285 176.554,126.285 176.692 C 126.285 176.830,127.491 178.191,128.965 179.716 C 130.438 181.240,132.578 183.463,133.719 184.655 C 134.861 185.846,135.927 186.821,136.088 186.821 C 136.480 186.821,138.254 185.224,140.030 183.273 C 140.573 182.676,141.156 182.187,141.324 182.187 C 141.492 182.187,143.849 179.971,146.560 177.263 C 149.272 174.555,151.598 172.339,151.729 172.339 C 151.861 172.339,152.307 171.980,152.722 171.542 C 153.136 171.104,153.647 170.587,153.856 170.392 C 154.065 170.197,154.383 169.888,154.564 169.706 C 154.744 169.523,155.298 168.988,155.795 168.517 C 156.291 168.046,156.698 167.548,156.698 167.412 C 156.698 167.276,156.952 167.084,157.263 166.985 C 157.573 166.887,157.905 166.559,158.001 166.256 C 158.097 165.954,158.463 165.616,158.813 165.505 C 159.163 165.395,161.773 162.977,164.613 160.133 C 170.196 154.542,170.321 154.474,170.758 156.804 C 170.867 157.387,171.072 157.934,171.213 158.022 C 171.354 158.109,171.470 158.433,171.470 158.743 C 171.470 159.052,171.585 159.305,171.727 159.305 C 171.868 159.305,172.071 159.891,172.179 160.608 C 172.286 161.325,172.464 161.912,172.574 161.912 C 172.684 161.912,173.029 162.759,173.342 163.794 C 173.654 164.830,174.001 165.677,174.113 165.677 C 174.224 165.677,174.403 166.198,174.511 166.834 C 174.618 167.470,174.825 168.065,174.971 168.155 C 175.116 168.244,175.235 168.571,175.235 168.880 C 175.235 169.189,175.366 169.442,175.525 169.442 C 175.684 169.442,175.815 169.736,175.816 170.094 C 175.817 170.453,176.013 171.119,176.251 171.575 C 176.489 172.032,176.684 172.586,176.684 172.806 C 176.684 173.027,176.799 173.208,176.940 173.208 C 177.082 173.208,177.285 173.794,177.393 174.511 C 177.500 175.228,177.699 175.815,177.834 175.815 C 177.970 175.815,178.169 176.335,178.276 176.972 C 178.384 177.608,178.591 178.202,178.736 178.292 C 178.882 178.382,179.001 178.709,179.001 179.018 C 179.001 179.327,179.120 179.580,179.265 179.580 C 179.410 179.580,179.617 180.101,179.725 180.737 C 179.832 181.373,180.039 181.968,180.185 182.058 C 180.330 182.147,180.449 182.474,180.449 182.783 C 180.449 183.092,180.579 183.345,180.739 183.345 C 180.898 183.345,181.029 183.639,181.030 183.997 C 181.031 184.356,181.227 185.022,181.464 185.478 C 181.702 185.935,181.897 186.489,181.897 186.709 C 181.897 187.029,182.594 187.111,185.305 187.111 L 188.712 187.111 189.215 185.950 C 189.491 185.312,189.718 184.530,189.718 184.212 C 189.718 183.895,189.822 183.635,189.950 183.635 C 190.225 183.635,191.169 181.107,191.167 180.377 C 191.166 180.098,191.296 179.870,191.455 179.870 C 191.615 179.870,191.745 179.689,191.745 179.468 C 191.745 179.248,191.940 178.694,192.178 178.237 C 192.416 177.781,192.611 177.114,192.612 176.756 C 192.613 176.398,192.738 176.104,192.891 176.104 C 193.043 176.104,193.253 175.647,193.358 175.087 C 193.463 174.528,193.664 173.999,193.805 173.912 C 193.947 173.824,194.062 173.435,194.062 173.046 C 194.062 172.657,194.191 172.339,194.348 172.339 C 194.506 172.339,194.718 171.818,194.820 171.180 C 194.922 170.543,195.119 170.022,195.258 170.022 C 195.397 170.022,195.510 169.696,195.510 169.298 C 195.510 168.899,195.639 168.573,195.797 168.573 C 195.954 168.573,196.166 168.052,196.268 167.415 C 196.370 166.778,196.567 166.256,196.706 166.256 C 196.845 166.256,196.959 165.930,196.959 165.532 C 196.959 165.134,197.088 164.808,197.245 164.808 C 197.402 164.808,197.615 164.287,197.716 163.650 C 197.818 163.012,197.999 162.491,198.117 162.491 C 198.236 162.491,198.416 161.970,198.518 161.332 C 198.620 160.695,198.832 160.174,198.990 160.174 C 199.147 160.174,199.276 159.848,199.276 159.450 C 199.276 159.051,199.390 158.726,199.529 158.726 C 199.667 158.726,199.865 158.204,199.966 157.567 C 200.068 156.930,200.280 156.408,200.438 156.408 C 200.595 156.408,200.724 156.090,200.724 155.701 C 200.724 155.313,200.854 154.914,201.014 154.815 C 201.173 154.717,201.304 154.416,201.305 154.147 C 201.306 153.877,201.489 153.307,201.712 152.880 C 201.935 152.452,202.211 151.679,202.324 151.161 C 202.438 150.644,202.776 149.784,203.076 149.250 C 203.375 148.717,203.621 148.220,203.621 148.145 C 203.621 148.070,201.828 148.009,199.636 148.009 L 195.652 148.009 195.277 148.856 C 195.071 149.322,194.826 150.169,194.734 150.739 C 194.641 151.308,194.464 151.774,194.339 151.774 C 194.215 151.774,194.025 152.295,193.918 152.931 C 193.810 153.568,193.603 154.162,193.458 154.252 C 193.312 154.342,193.193 154.668,193.193 154.977 C 193.193 155.286,193.080 155.539,192.941 155.539 C 192.802 155.539,192.604 156.067,192.501 156.711 C 192.398 157.355,192.186 158.137,192.029 158.449 C 191.873 158.760,191.631 159.248,191.492 159.532 C 191.353 159.816,191.141 160.496,191.021 161.043 C 190.901 161.590,190.705 162.237,190.585 162.481 C 189.900 163.880,189.428 165.188,189.428 165.687 C 189.428 166.000,189.310 166.256,189.165 166.256 C 189.021 166.256,188.813 166.908,188.704 167.705 C 188.594 168.501,188.387 169.153,188.242 169.153 C 188.098 169.153,187.980 169.333,187.980 169.554 C 187.980 169.775,187.785 170.329,187.547 170.785 C 187.309 171.241,187.114 171.908,187.113 172.266 C 187.112 172.625,186.980 172.918,186.821 172.918 C 186.662 172.918,186.531 173.164,186.531 173.464 C 186.531 175.645,185.312 176.025,184.926 173.965 C 184.818 173.389,184.613 172.918,184.472 172.918 C 184.330 172.918,184.214 172.592,184.214 172.194 C 184.214 171.796,184.101 171.470,183.962 171.470 C 183.823 171.470,183.625 170.943,183.522 170.299 C 183.419 169.655,183.186 168.840,183.005 168.488 C 182.335 167.188,182.222 166.884,182.030 165.858 C 181.921 165.280,181.717 164.808,181.575 164.808 C 181.434 164.808,181.317 164.515,181.316 164.156 C 181.315 163.798,181.120 163.131,180.882 162.675 C 180.644 162.219,180.449 161.600,180.449 161.299 C 180.449 160.999,180.319 160.753,180.159 160.753 C 180.000 160.753,179.869 160.460,179.868 160.101 C 179.867 159.743,179.671 159.076,179.433 158.620 C 179.195 158.164,179.001 157.610,179.001 157.389 C 179.001 157.168,178.883 156.988,178.738 156.988 C 178.594 156.988,178.386 156.336,178.277 155.539 C 178.167 154.743,177.974 154.091,177.848 154.091 C 177.722 154.091,177.553 153.733,177.474 153.295 C 177.308 152.381,176.622 150.541,176.367 150.326 C 176.273 150.246,176.111 149.750,176.009 149.223 C 175.870 148.510,175.008 147.455,172.632 145.090 C 170.878 143.344,169.442 141.797,169.442 141.652 C 169.442 141.139,165.646 137.581,165.099 137.581 C 164.753 137.581,159.493 142.632,151.133 150.990 L 137.722 164.399 136.638 163.322 C 136.042 162.729,135.554 162.126,135.554 161.981 C 135.554 161.836,135.196 161.379,134.757 160.964 C 134.319 160.549,133.802 160.039,133.607 159.830 C 133.412 159.621,133.120 159.319,132.959 159.160 C 132.797 159.001,132.262 158.447,131.770 157.929 C 131.278 157.411,130.764 156.988,130.627 156.988 C 130.491 156.988,130.299 156.734,130.200 156.423 C 130.102 156.113,129.774 155.780,129.471 155.684 C 129.169 155.588,128.837 155.242,128.733 154.914 C 128.629 154.587,127.058 152.826,125.242 151.002 C 122.247 147.993,121.418 146.850,122.230 146.850 C 122.390 146.850,122.520 146.672,122.520 146.455 C 122.520 146.238,123.269 145.270,124.185 144.304 C 127.335 140.984,129.322 138.754,129.435 138.413 C 129.498 138.226,130.248 137.395,131.103 136.567 C 131.958 135.739,132.657 134.856,132.657 134.603 C 132.657 134.351,132.912 134.064,133.222 133.966 C 133.532 133.867,133.867 133.532,133.966 133.222 C 134.064 132.912,134.258 132.657,134.397 132.657 C 134.535 132.657,135.015 132.260,135.463 131.773 C 135.911 131.287,136.571 130.612,136.930 130.273 C 137.288 129.934,137.581 129.503,137.581 129.315 C 137.581 129.127,137.914 128.727,138.321 128.426 C 138.728 128.125,139.344 127.422,139.689 126.865 C 140.035 126.307,140.940 125.251,141.701 124.518 C 142.462 123.786,143.085 123.096,143.085 122.986 C 143.085 122.877,143.573 122.279,144.171 121.657 C 147.393 118.305,147.390 118.322,145.399 116.198 C 144.604 115.349,143.954 114.618,143.954 114.573 C 143.954 114.528,142.878 113.376,141.564 112.013 C 138.628 108.968,137.871 108.103,137.871 107.792 C 137.871 107.107,136.464 106.918,136.050 107.547 M284.142 142.361 L 284.142 148.009 282.114 148.009 L 280.087 148.009 280.087 151.050 L 280.087 154.091 282.114 154.091 L 284.142 154.091 284.142 165.225 C 284.142 171.349,284.253 176.428,284.389 176.512 C 284.525 176.596,284.712 177.664,284.804 178.885 C 284.896 180.106,285.111 181.244,285.281 181.414 C 285.451 181.584,285.590 181.958,285.590 182.245 C 285.590 182.531,285.720 182.766,285.880 182.766 C 286.039 182.766,286.169 182.957,286.169 183.189 C 286.169 183.762,288.273 185.809,289.353 186.287 C 289.832 186.499,290.224 186.767,290.224 186.882 C 290.224 186.997,290.876 187.177,291.673 187.283 C 292.469 187.389,293.121 187.589,293.121 187.727 C 293.121 187.866,294.490 187.980,296.162 187.980 C 297.835 187.980,299.203 187.868,299.203 187.732 C 299.203 187.596,300.137 187.406,301.278 187.311 C 303.839 187.096,303.828 187.113,303.833 183.264 C 303.838 179.852,303.639 179.462,302.225 180.121 C 301.838 180.301,301.175 180.612,300.752 180.811 C 299.712 181.301,294.804 181.299,294.641 180.810 C 294.575 180.611,294.402 180.449,294.258 180.449 C 293.625 180.449,292.537 179.117,292.385 178.155 C 292.294 177.585,292.097 176.892,291.947 176.615 C 291.788 176.324,291.673 171.472,291.673 165.108 L 291.673 154.103 297.683 154.025 L 303.693 153.946 303.776 150.978 L 303.858 148.009 297.765 148.009 L 291.673 148.009 291.673 142.361 L 291.673 136.713 287.907 136.713 L 284.142 136.713 284.142 142.361 M219.189 146.773 C 218.432 146.833,217.813 147.005,217.813 147.156 C 217.813 147.306,217.487 147.429,217.089 147.429 C 216.691 147.429,216.365 147.560,216.365 147.719 C 216.365 147.878,216.086 148.009,215.745 148.009 C 214.673 148.009,211.641 150.069,210.020 151.898 C 209.607 152.364,209.073 152.962,208.834 153.227 C 208.315 153.801,207.745 154.651,207.478 155.250 C 207.371 155.489,207.209 155.749,207.117 155.829 C 206.896 156.023,206.208 157.821,206.010 158.726 C 205.923 159.124,205.739 159.524,205.601 159.614 C 205.463 159.705,205.267 161.045,205.165 162.593 C 205.063 164.141,204.870 165.476,204.735 165.560 C 204.414 165.758,204.415 169.362,204.736 169.561 C 204.872 169.644,205.056 170.939,205.145 172.437 C 205.234 173.936,205.436 175.406,205.593 175.705 C 205.750 176.004,206.116 176.836,206.407 177.552 C 206.698 178.269,207.019 178.921,207.122 179.001 C 207.224 179.080,207.400 179.440,207.512 179.800 C 207.805 180.737,212.779 185.663,213.432 185.663 C 213.585 185.663,214.342 185.980,215.114 186.368 C 215.886 186.755,217.203 187.164,218.041 187.275 C 218.879 187.386,219.634 187.590,219.719 187.728 C 219.924 188.060,229.109 188.055,229.109 187.724 C 229.109 187.583,229.957 187.377,230.992 187.266 C 232.028 187.155,232.875 186.945,232.875 186.798 C 232.875 186.651,233.128 186.531,233.437 186.531 C 233.746 186.531,234.073 186.412,234.163 186.267 C 234.252 186.122,234.847 185.915,235.483 185.807 C 236.119 185.700,236.640 185.493,236.640 185.347 C 236.640 185.202,236.963 185.083,237.359 185.083 C 237.863 185.083,238.126 184.889,238.239 184.432 C 238.969 181.491,237.960 175.509,236.964 176.872 C 236.741 177.179,235.998 177.631,234.323 178.483 C 233.606 178.847,232.953 179.233,232.872 179.340 C 232.791 179.447,232.366 179.624,231.928 179.734 C 231.490 179.844,231.060 180.050,230.972 180.191 C 230.885 180.333,230.506 180.449,230.130 180.449 C 229.755 180.449,229.393 180.612,229.327 180.811 C 229.008 181.766,218.682 181.096,218.682 180.120 C 218.682 180.017,218.356 179.851,217.958 179.751 C 217.560 179.651,217.234 179.441,217.234 179.285 C 217.234 179.129,217.070 179.001,216.869 179.001 C 216.362 179.001,214.917 177.616,214.917 177.130 C 214.917 176.911,214.806 176.688,214.671 176.635 C 213.960 176.356,212.838 173.575,212.681 171.703 C 212.589 170.609,212.403 169.645,212.267 169.561 C 210.807 168.659,211.948 168.573,225.489 168.573 L 238.957 168.573 238.957 164.391 C 238.957 161.915,238.839 160.135,238.668 160.029 C 238.508 159.931,238.378 159.416,238.378 158.887 C 238.378 157.780,237.531 154.960,237.198 154.960 C 237.076 154.960,236.890 154.569,236.785 154.091 C 236.680 153.613,236.502 153.222,236.390 153.222 C 236.278 153.222,235.937 152.799,235.633 152.281 C 234.930 151.083,233.856 150.008,232.657 149.305 C 232.140 149.001,231.716 148.661,231.716 148.549 C 231.716 148.436,231.325 148.258,230.847 148.154 C 230.369 148.049,229.978 147.857,229.978 147.729 C 229.978 147.497,229.442 147.357,226.647 146.860 C 225.210 146.605,221.828 146.565,219.189 146.773 M260.294 146.753 C 259.683 146.827,258.734 147.140,258.185 147.448 C 257.636 147.757,257.040 148.009,256.859 148.009 C 256.434 148.009,253.827 149.683,252.875 150.568 L 252.136 151.255 252.049 149.632 L 251.962 148.009 248.211 148.009 L 244.461 148.009 244.461 167.560 L 244.461 187.111 248.226 187.111 L 251.991 187.111 251.991 172.629 C 251.991 164.663,252.102 158.146,252.238 158.146 C 252.374 158.146,252.885 157.788,253.374 157.350 C 254.743 156.124,255.133 155.829,255.388 155.829 C 255.517 155.829,256.105 155.501,256.694 155.101 C 257.284 154.700,258.360 154.291,259.086 154.191 C 259.813 154.092,260.476 153.898,260.561 153.761 C 260.775 153.415,262.634 153.448,262.853 153.802 C 262.951 153.961,263.386 154.091,263.819 154.091 C 264.866 154.091,266.763 155.385,266.763 156.098 C 266.763 156.269,266.892 156.408,267.049 156.408 C 267.207 156.408,267.419 156.930,267.521 157.567 C 267.623 158.204,267.819 158.726,267.956 158.726 C 268.093 158.726,268.240 165.080,268.281 172.846 L 268.356 186.966 272.049 187.047 L 275.742 187.128 275.742 172.058 C 275.742 163.769,275.630 156.988,275.493 156.988 C 275.356 156.988,275.168 156.346,275.075 155.562 C 274.923 154.278,274.452 153.034,273.971 152.643 C 273.873 152.563,273.701 152.205,273.589 151.846 C 273.478 151.488,273.264 151.195,273.116 151.195 C 272.967 151.195,272.846 151.054,272.846 150.883 C 272.846 150.477,271.246 148.878,270.841 148.878 C 270.669 148.878,270.529 148.750,270.529 148.593 C 270.529 148.437,270.203 148.228,269.804 148.128 C 269.406 148.028,269.080 147.830,269.080 147.688 C 269.080 147.546,268.765 147.429,268.380 147.429 C 267.995 147.429,267.635 147.293,267.580 147.127 C 267.471 146.801,262.153 146.528,260.294 146.753 M315.568 147.140 C 315.470 147.299,315.079 147.429,314.699 147.429 C 314.320 147.429,313.938 147.545,313.851 147.686 C 313.764 147.827,313.235 148.029,312.675 148.134 C 312.116 148.239,311.658 148.435,311.658 148.570 C 311.658 148.705,311.332 148.897,310.934 148.997 C 310.536 149.097,310.210 149.306,310.210 149.462 C 310.210 149.619,310.079 149.747,309.918 149.747 C 309.500 149.747,307.893 151.228,307.893 151.613 C 307.893 151.791,307.632 152.124,307.314 152.353 C 306.995 152.583,306.734 152.885,306.734 153.025 C 306.734 153.165,306.552 153.690,306.328 154.192 C 305.545 155.955,305.286 157.089,305.286 158.765 C 305.286 160.383,305.805 163.055,306.178 163.360 C 306.276 163.440,306.444 163.865,306.551 164.306 C 306.902 165.738,308.749 167.654,310.644 168.550 C 312.155 169.264,314.386 170.002,315.062 170.012 C 315.420 170.017,315.713 170.137,315.713 170.278 C 315.713 170.418,316.559 170.624,317.593 170.735 C 318.627 170.846,319.547 171.056,319.638 171.203 C 319.728 171.350,320.088 171.474,320.437 171.479 C 322.558 171.511,326.140 173.672,326.140 174.920 C 326.140 175.234,326.271 175.571,326.430 175.670 C 326.589 175.768,326.720 176.232,326.720 176.701 C 326.720 177.169,326.589 177.552,326.430 177.552 C 326.271 177.552,326.140 177.869,326.140 178.256 C 326.140 178.643,325.949 179.132,325.716 179.342 C 324.749 180.214,324.412 180.449,324.125 180.449 C 323.959 180.449,323.823 180.570,323.823 180.718 C 323.823 180.866,323.074 181.067,322.158 181.166 C 321.242 181.265,320.266 181.470,319.989 181.622 C 319.364 181.964,317.828 181.983,317.622 181.650 C 317.538 181.514,316.716 181.323,315.795 181.227 C 314.874 181.131,313.469 180.721,312.672 180.317 C 311.875 179.913,311.007 179.582,310.741 179.581 C 310.476 179.581,310.215 179.480,310.162 179.358 C 310.109 179.235,309.348 178.686,308.472 178.136 C 307.596 177.587,306.798 177.022,306.700 176.882 C 306.601 176.741,306.275 176.674,305.975 176.731 C 304.986 176.921,305.026 185.083,306.016 185.083 C 306.252 185.083,306.445 185.208,306.445 185.360 C 306.445 185.512,306.902 185.722,307.462 185.827 C 308.021 185.932,308.550 186.133,308.637 186.275 C 308.725 186.416,309.114 186.531,309.503 186.531 C 309.892 186.531,310.210 186.655,310.210 186.807 C 310.210 186.958,310.995 187.171,311.954 187.279 C 312.914 187.388,313.769 187.590,313.854 187.728 C 314.056 188.056,323.244 188.058,323.244 187.730 C 323.244 187.593,323.886 187.405,324.670 187.312 C 325.954 187.160,327.197 186.690,327.589 186.208 C 327.668 186.110,328.027 185.939,328.385 185.827 C 328.744 185.715,329.037 185.502,329.037 185.353 C 329.037 185.205,329.200 185.083,329.399 185.083 C 329.837 185.083,331.933 182.971,331.933 182.530 C 331.933 182.357,332.096 182.111,332.295 181.984 C 332.925 181.581,333.408 180.453,333.583 178.979 C 333.676 178.194,333.864 177.552,334.001 177.552 C 334.138 177.552,334.251 176.640,334.251 175.525 C 334.251 174.366,334.126 173.497,333.961 173.497 C 333.802 173.497,333.671 173.028,333.671 172.455 C 333.671 170.676,331.120 166.836,329.938 166.836 C 329.761 166.836,329.616 166.716,329.616 166.570 C 329.616 166.424,328.997 166.086,328.240 165.820 C 327.484 165.554,326.641 165.219,326.368 165.076 C 326.094 164.933,325.146 164.730,324.259 164.626 C 323.373 164.522,322.579 164.325,322.495 164.188 C 322.410 164.051,321.965 163.939,321.506 163.939 C 321.047 163.939,320.599 163.822,320.510 163.678 C 320.421 163.534,319.566 163.326,318.610 163.215 C 317.654 163.104,316.872 162.896,316.872 162.752 C 316.872 162.608,316.672 162.491,316.427 162.491 C 315.911 162.491,314.676 161.732,313.835 160.898 C 312.160 159.237,313.817 154.091,316.028 154.091 C 316.333 154.091,316.582 153.961,316.582 153.802 C 316.582 153.642,316.966 153.512,317.434 153.512 C 317.903 153.512,318.366 153.382,318.465 153.222 C 318.563 153.063,319.418 152.933,320.365 152.933 C 321.319 152.933,322.085 153.062,322.085 153.222 C 322.085 153.382,322.607 153.512,323.244 153.512 C 323.881 153.512,324.403 153.627,324.403 153.769 C 324.403 153.910,324.989 154.113,325.706 154.221 C 326.423 154.328,327.009 154.539,327.009 154.688 C 327.009 154.838,327.270 154.960,327.589 154.960 C 327.907 154.960,328.168 155.076,328.168 155.218 C 328.168 155.360,328.494 155.558,328.892 155.658 C 329.290 155.758,329.616 155.968,329.616 156.124 C 329.616 156.281,329.796 156.408,330.015 156.408 C 330.235 156.408,330.576 156.604,330.775 156.843 C 330.973 157.082,331.510 157.277,331.969 157.277 L 332.802 157.277 332.802 153.379 L 332.802 149.480 331.644 149.133 C 331.007 148.942,330.485 148.688,330.485 148.569 C 330.485 148.450,329.833 148.263,329.037 148.154 C 328.240 148.044,327.589 147.836,327.589 147.692 C 327.589 147.548,327.075 147.429,326.447 147.429 C 325.819 147.429,325.225 147.299,325.127 147.140 C 325.020 146.966,323.102 146.850,320.348 146.850 C 317.593 146.850,315.676 146.966,315.568 147.140 M225.634 153.222 C 225.634 153.382,225.959 153.512,226.358 153.512 C 226.756 153.512,227.082 153.634,227.082 153.782 C 227.082 153.931,227.374 154.145,227.732 154.259 C 228.891 154.626,230.847 157.312,230.847 158.535 C 230.847 158.780,230.978 159.062,231.137 159.160 C 231.296 159.258,231.427 160.048,231.427 160.915 L 231.427 162.491 221.973 162.491 L 212.519 162.491 212.699 160.972 C 212.798 160.137,213.011 159.409,213.174 159.355 C 213.336 159.301,213.469 159.067,213.469 158.836 C 213.469 157.440,217.652 153.512,219.140 153.512 C 219.366 153.512,219.551 153.382,219.551 153.222 C 219.551 153.048,220.758 152.933,222.592 152.933 C 224.427 152.933,225.634 153.048,225.634 153.222 " stroke="none" fill="#040ce4" fill-rule="evenodd"></path><path id="path1" d="" stroke="none" fill="#080ce4" fill-rule="evenodd"></path><path id="path2" d="" stroke="none" fill="#080ce4" fill-rule="evenodd"></path><path id="path3" d="" stroke="none" fill="#080ce4" fill-rule="evenodd"></path><path id="path4" d="" stroke="none" fill="#080ce4" fill-rule="evenodd"></path></g></svg>